<!-- Created with Inkscape (http://www.inkscape.org/) -->
<svg id="svg2" xmlns:rdf="http://www.w3.org/1999/02/22-rdf-syntax-ns#" xmlns="http://www.w3.org/2000/svg" height="28mm" width="142mm" version="1.1" xmlns:cc="http://creativecommons.org/ns#" xmlns:dc="http://purl.org/dc/elements/1.1/" viewBox="0 0 503.14961 99.212598">
 <g id="layer1" transform="translate(-16.705 -926.79)">
  <g id="text4136" fill="#cf000f">
   <path id="path5312" d="m48.43 1000.5c8.1687 0 14.495-2.4827 17.859-4.2446v-8.8895c-4.3246 2.5627-10.411 5.1255-17.058 5.1255-10.091 0-17.459-6.0064-17.459-17.539 0-11.212 6.8874-17.379 16.898-17.379 3.0432 0 6.4869 0.5606 8.8094 1.2013v8.9696h8.8895v-14.015c-3.0432-1.4415-10.331-3.9242-18.179-3.9242-15.216 0-26.028 9.4501-26.028 25.627 0 15.697 10.251 25.067 26.268 25.067z"/>
   <path id="path5314" d="m88.998 1000.5c9.7704 0 18.5-3.4437 18.5-14.095 0-18.58-26.188-12.974-26.188-23.385 0-4.4848 4.8051-5.8462 9.5302-5.8462 2.5627 0 5.2056 0.40042 6.8073 0.64068v6.567h8.4891v-11.933c-4.0043-1.3614-10.011-2.6428-15.537-2.6428-9.6103 0-18.26 3.9242-18.26 14.175 0 17.939 26.188 11.933 26.188 23.065 0 4.8051-4.8852 6.0865-10.091 6.0865-3.6839 0-6.6471-0.64069-8.409-1.0411v-6.4068h-8.3289v12.173c4.645 1.2013 10.892 2.6428 17.298 2.6428z"/>
  </g>
  <g id="text4140" fill="#333">
   <path id="path5293" d="m139.77 949.72q8.7012 0 13.623 6.8115 4.9219 6.7676 4.9219 18.589 0 12.173-5.0976 18.853-5.0537 6.6797-13.799 6.6797-8.6572 0-13.579-6.2842h-0.92285l-2.2412 5.4053h-10.239v-68.379h13.403v15.908q0 3.0322-0.52734 9.7119h0.52734q4.7022-7.2949 13.931-7.2949zm-4.3066 10.723q-4.9658 0-7.251 3.0762-2.2852 3.0322-2.373 10.063v1.4502q0 7.9102 2.3291 11.338 2.373 3.4277 7.4707 3.4277 4.1309 0 6.5479-3.7793 2.4609-3.8232 2.4609-11.074 0-7.251-2.4609-10.854-2.4609-3.6475-6.7236-3.6475z"/>
   <path id="path5295" d="m178.29 999.77h-13.403v-68.379h13.403v68.379z"/>
   <path id="path5297" d="m198.49 975.12q0 7.2949 2.373 11.03 2.417 3.7354 7.8223 3.7354 5.3613 0 7.6904-3.6914 2.373-3.7354 2.373-11.074 0-7.2949-2.373-10.942-2.373-3.6475-7.7783-3.6475-5.3613 0-7.7344 3.6475-2.373 3.6035-2.373 10.942zm33.97 0q0 11.997-6.3281 18.765-6.3281 6.7676-17.622 6.7676-7.0752 0-12.48-3.0762-5.4053-3.1201-8.3057-8.9209t-2.9004-13.535q0-12.041 6.2842-18.721 6.2842-6.6797 17.666-6.6797 7.0752 0 12.48 3.0762 5.4053 3.0762 8.3057 8.833t2.9004 13.491z"/>
   <path id="path5299" d="m281.79 950.64v6.8115l-7.6904 1.9775q2.1094 3.2959 2.1094 7.3828 0 7.9102-5.5371 12.349-5.4932 4.3945-15.293 4.3945l-2.417-0.13184-1.9775-0.21972q-2.0654 1.582-2.0654 3.5156 0 2.9004 7.3828 2.9004h8.3496q8.0859 0 12.305 3.4717 4.2627 3.4717 4.2627 10.195 0 8.6133-7.207 13.359-7.1631 4.7461-20.61 4.7461-10.283 0-15.732-3.6036-5.4053-3.5595-5.4053-10.02 0-4.4385 2.7686-7.4268 2.7686-2.9882 8.1299-4.2626-2.0654-0.8789-3.6035-2.8564-1.5381-2.0215-1.5381-4.2627 0-2.8125 1.626-4.6582 1.626-1.8896 4.7022-3.6914-3.8672-1.6699-6.1524-5.3613-2.2412-3.6914-2.2412-8.7012 0-8.042 5.2295-12.437 5.2295-4.3945 14.941-4.3945 2.0654 0 4.8779 0.39551 2.8564 0.35156 3.6475 0.52734h17.139zm-37.925 56.074q0 2.7686 2.6367 4.3506 2.6807 1.582 7.4707 1.582 7.207 0 11.294-1.9775 4.0869-1.9775 4.0869-5.4053 0-2.7685-2.417-3.8232t-7.4707-1.0547h-6.9434q-3.6914 0-6.1963 1.7139-2.4609 1.7578-2.4609 4.6142zm4.8779-39.99q0 3.999 1.8018 6.3281 1.8457 2.3291 5.581 2.3291 3.7793 0 5.5371-2.3291t1.7578-6.3281q0-8.877-7.2949-8.877-7.3828 0-7.3828 8.877z"/>
   <path id="path5301" d="m319.61 985.18q0 7.5586-5.2734 11.514-5.2295 3.9551-15.688 3.9551-5.3613 0-9.1406-0.7471-3.7793-0.70313-7.0752-2.1094v-11.074q3.7354 1.7578 8.3936 2.9443 4.7022 1.1865 8.2617 1.1865 7.2949 0 7.2949-4.2188 0-1.582-0.9668-2.5488-0.96679-1.0107-3.3398-2.2412-2.373-1.2744-6.3281-2.9443-5.669-2.373-8.3496-4.3945-2.6367-2.0215-3.8672-4.6142-1.1865-2.6367-1.1865-6.46 0-6.5479 5.0537-10.107 5.0976-3.6035 14.414-3.6035 8.877 0 17.271 3.8672l-4.043 9.668q-3.6914-1.582-6.8994-2.5928-3.208-1.0107-6.5478-1.0107-5.9326 0-5.9326 3.208 0 1.8018 1.8896 3.1201 1.9336 1.3184 8.3936 3.9111 5.7568 2.3291 8.4375 4.3506t3.9551 4.6582 1.2744 6.2842z"/>
   <path id="path5303" d="m323.77 993.49q0-3.6914 1.9775-5.581t5.7568-1.8896q3.6475 0 5.625 1.9336 2.0215 1.9336 2.0215 5.5371 0 3.4717-2.0215 5.4932-2.0215 1.9776-5.625 1.9776-3.6914 0-5.7129-1.9336-2.0215-1.9775-2.0215-5.5371z"/>
   <path id="path5305" d="m366.78 1000.7q-22.939 0-22.939-25.181 0-12.524 6.2402-19.116 6.2402-6.6357 17.886-6.6357 8.5254 0 15.293 3.3398l-3.9551 10.371q-3.1641-1.2744-5.8887-2.0654-2.7246-0.83496-5.4492-0.83496-10.459 0-10.459 14.854 0 14.414 10.459 14.414 3.8672 0 7.1631-1.0107 3.2959-1.0547 6.5918-3.252v11.47q-3.252 2.0654-6.5918 2.8564-3.2959 0.79105-8.3496 0.79105z"/>
   <path id="path5307" d="m399.23 975.12q0 7.2949 2.373 11.03 2.417 3.7354 7.8223 3.7354 5.3613 0 7.6904-3.6914 2.373-3.7354 2.373-11.074 0-7.2949-2.373-10.942-2.373-3.6475-7.7783-3.6475-5.3613 0-7.7344 3.6475-2.373 3.6035-2.373 10.942zm33.97 0q0 11.997-6.3281 18.765-6.3281 6.7676-17.622 6.7676-7.0752 0-12.48-3.0762-5.4053-3.1201-8.3057-8.9209t-2.9004-13.535q0-12.041 6.2842-18.721 6.2842-6.6797 17.666-6.6797 7.0752 0 12.48 3.0762 5.4053 3.0762 8.3057 8.833t2.9004 13.491z"/>
   <path id="path5309" d="m483.77 999.77h-13.403v-28.696q0-5.3174-1.8018-7.9541-1.7578-2.6807-5.581-2.6807-5.1416 0-7.4707 3.7793t-2.3291 12.437v23.115h-13.403v-49.131h10.239l1.8018 6.2842h0.74707q1.9775-3.3838 5.7129-5.2734 3.7354-1.9336 8.5693-1.9336 11.03 0 14.941 7.207h1.1865q1.9775-3.4277 5.8008-5.3174 3.8672-1.8896 8.7012-1.8896 8.3496 0 12.612 4.3066 4.3066 4.2627 4.3066 13.711v32.036h-13.447v-28.696q0-5.3174-1.8018-7.9541-1.7578-2.6807-5.5811-2.6807-4.9219 0-7.3828 3.5156-2.417 3.5156-2.417 11.162v24.653z"/>
  </g>
 </g>
</svg>
