<!-- Created with Inkscape (http://www.inkscape.org/) -->
<svg xmlns:rdf="http://www.w3.org/1999/02/22-rdf-syntax-ns#" xmlns="http://www.w3.org/2000/svg" height="28mm" width="142mm" version="1.1" xmlns:cc="http://creativecommons.org/ns#" xmlns:dc="http://purl.org/dc/elements/1.1/" viewBox="0 0 503.14961 99.212598">
 <g transform="translate(-16.705 -926.79)">
  <path d="m96.361 4.6055v68.378h10.239l2.24-5.404h0.93c3.28 4.19 7.8 6.283 13.57 6.283 5.83 0 10.43-2.226 13.8-6.679 3.4-4.454 5.1-10.737 5.1-18.852 0-7.881-1.64-14.078-4.92-18.59-3.28-4.541-7.82-6.81-13.62-6.81-6.16 0-10.8 2.431-13.93 7.295h-0.53c0.35-4.454 0.53-7.692 0.53-9.713v-15.908l-13.409-0.0005zm52.449 0v68.378h13.41v-68.378l-13.41-0.0005zm43.89 18.326c-7.59 0-13.48 2.226-17.67 6.679s-6.28 10.694-6.28 18.721c0 5.156 0.96 9.668 2.9 13.535 1.93 3.867 4.7 6.84 8.31 8.92 3.6 2.051 7.76 3.076 12.48 3.076 7.52 0 13.4-2.256 17.62-6.767 4.22-4.512 6.32-10.766 6.32-18.764 0-5.156-0.96-9.654-2.9-13.492-1.93-3.838-4.7-6.781-8.3-8.832s-7.76-3.076-12.48-3.076zm47.35 0c-6.47 0-11.45 1.464-14.94 4.394-3.48 2.93-5.23 7.074-5.23 12.436 0 3.34 0.75 6.24 2.24 8.701 1.53 2.461 3.58 4.248 6.16 5.361-2.05 1.201-3.62 2.432-4.71 3.692-1.08 1.23-1.62 2.783-1.62 4.658 0 1.494 0.51 2.916 1.54 4.264 1.02 1.318 2.22 2.269 3.6 2.855-3.57 0.85-6.28 2.271-8.13 4.264-1.84 1.992-2.77 4.466-2.77 7.425 0 4.307 1.8 7.647 5.41 10.02 3.63 2.402 8.87 3.603 15.73 3.603 8.96 0 15.83-1.582 20.61-4.746 4.8-3.164 7.21-7.617 7.21-13.359 0-4.482-1.42-7.881-4.27-10.195-2.81-2.315-6.91-3.471-12.3-3.471h-8.35c-4.92 0-7.38-0.967-7.38-2.9 0-1.289 0.69-2.461 2.06-3.516l1.98 0.219 2.42 0.133c6.53 0 11.63-1.465 15.29-4.395 3.69-2.959 5.54-7.076 5.54-12.35 0-2.724-0.71-5.185-2.11-7.382l7.69-1.977v-6.812h-17.14c-0.53-0.118-1.74-0.293-3.65-0.528-1.87-0.264-3.5-0.394-4.88-0.394zm45.69 0c-6.21 0-11.02 1.201-14.41 3.603-3.37 2.373-5.06 5.742-5.06 10.108 0 2.548 0.4 4.701 1.19 6.459 0.82 1.728 2.11 3.267 3.87 4.615 1.78 1.347 4.57 2.812 8.35 4.394 2.63 1.114 4.74 2.094 6.32 2.944 1.59 0.82 2.7 1.568 3.34 2.242 0.65 0.644 0.97 1.494 0.97 2.549 0 2.812-2.43 4.218-7.29 4.218-2.38 0-5.13-0.396-8.27-1.187-3.1-0.791-5.9-1.772-8.39-2.943v11.074c2.2 0.937 4.56 1.64 7.08 2.109 2.52 0.498 5.56 0.746 9.14 0.746 6.97 0 12.2-1.318 15.68-3.955 3.52-2.637 5.28-6.474 5.28-11.513 0-2.432-0.43-4.526-1.28-6.284-0.85-1.757-2.16-3.31-3.95-4.658s-4.6-2.799-8.44-4.351c-4.31-1.729-7.1-3.032-8.39-3.911-1.26-0.879-1.89-1.92-1.89-3.121 0-2.138 1.97-3.207 5.93-3.207 2.23 0 4.41 0.336 6.55 1.01s4.44 1.539 6.9 2.594l4.04-9.668c-5.6-2.578-11.35-3.867-17.27-3.867zm66.15 0c-7.77 0-13.73 2.211-17.89 6.634-4.16 4.395-6.24 10.768-6.24 19.118 0 16.787 7.65 25.179 22.94 25.179 3.37 0 6.15-0.263 8.35-0.791 2.23-0.527 4.42-1.478 6.59-2.855v-11.471c-2.2 1.465-4.39 2.549-6.59 3.252-2.2 0.674-4.59 1.012-7.16 1.012-6.98 0-10.46-4.805-10.46-14.414 0-9.903 3.48-14.854 10.46-14.854 1.81 0 3.63 0.278 5.45 0.834 1.81 0.528 3.78 1.217 5.88 2.067l3.96-10.372c-4.51-2.226-9.61-3.339-15.29-3.339zm41.55 0c-7.59 0-13.48 2.226-17.66 6.679-4.19 4.453-6.29 10.694-6.29 18.721 0 5.156 0.97 9.668 2.9 13.535s4.7 6.84 8.31 8.92c3.6 2.051 7.76 3.076 12.48 3.076 7.53 0 13.4-2.256 17.62-6.767 4.22-4.512 6.33-10.766 6.33-18.764 0-5.156-0.97-9.654-2.9-13.492-1.94-3.838-4.7-6.781-8.31-8.832-3.6-2.051-7.76-3.076-12.48-3.076zm57.33 0c-3.22 0-6.08 0.644-8.57 1.933-2.49 1.26-4.39 3.018-5.71 5.274h-0.75l-1.8-6.285h-10.24v49.13h13.41v-23.115c0-5.771 0.77-9.916 2.32-12.435 1.56-2.52 4.05-3.78 7.47-3.78 2.55 0 4.41 0.893 5.59 2.68 1.2 1.758 1.8 4.41 1.8 7.955v28.695h13.4v-24.652c0-5.098 0.81-8.818 2.42-11.162 1.64-2.344 4.1-3.516 7.38-3.516 2.55 0 4.41 0.893 5.58 2.68 1.2 1.758 1.8 4.41 1.8 7.955v28.695h13.45v-32.035c0-6.299-1.44-10.869-4.31-13.711-2.84-2.871-7.04-4.306-12.61-4.306-3.22 0-6.12 0.629-8.7 1.888-2.55 1.26-4.48 3.034-5.8 5.319h-1.19c-2.6-4.805-7.59-7.207-14.94-7.207zm-421.53 0.453c-14.962 0-24.412 9.563-24.412 25.201 0.0001 15.412 9.225 24.975 24.188 24.975 6.637 0 12.15-1.913 16.65-4.725v-5.514c-4.725 2.925-10.35 4.838-16.088 4.838-11.362 0-18.111-7.762-18.111-19.912 0-11.362 5.961-19.463 18.111-19.463 3.825 0 7.762 0.787 10.35 1.574v9.901h5.625v-13.612c-3.938-1.575-10.125-3.263-16.313-3.263zm42.701 0c-11.475 0-17.548 5.175-17.548 13.275 0 17.55 28.687 11.588 28.687 23.963 0 5.513-5.512 7.762-12.375 7.762-3.937 0-8.439-0.788-11.701-1.688v-7.65h-5.512v11.701c4.838 1.575 11.474 2.813 17.324 2.813 11.7 0 18.452-4.838 18.452-13.276 0-17.887-28.688-11.474-28.688-24.074 0-4.613 3.936-7.65 11.361-7.65 3.15 0 6.976 0.561 9.676 1.236v7.764h5.625v-11.702c-4.05-1.237-9.901-2.474-15.301-2.474zm168.11 7.676c4.87 0 7.3 2.959 7.3 8.877 0 2.666-0.59 4.775-1.76 6.328-1.17 1.552-3.02 2.33-5.54 2.33-2.49 0-4.35-0.778-5.58-2.33-1.2-1.553-1.8-3.662-1.8-6.328 0-5.918 2.46-8.877 7.38-8.877zm-120.66 2.593c2.84 0 5.08 1.215 6.72 3.647 1.64 2.402 2.46 6.021 2.46 10.855s-0.82 8.526-2.46 11.074c-1.61 2.52-3.79 3.78-6.55 3.78-3.39 0-5.88-1.143-7.47-3.428-1.55-2.285-2.32-6.064-2.32-11.338v-1.451c0.05-4.688 0.85-8.041 2.37-10.063 1.52-2.05 3.94-3.076 7.25-3.076zm73.13 0.088c3.61 0 6.2 1.215 7.78 3.647 1.58 2.431 2.37 6.08 2.37 10.943 0 4.893-0.79 8.584-2.37 11.074-1.55 2.461-4.11 3.692-7.69 3.692-3.6 0-6.21-1.246-7.82-3.737-1.58-2.49-2.37-6.166-2.37-11.029 0-4.893 0.79-8.541 2.37-10.943 1.58-2.432 4.16-3.647 7.73-3.647zm200.75 0c3.6 0 6.19 1.215 7.77 3.647 1.58 2.431 2.38 6.08 2.38 10.943 0 4.893-0.8 8.584-2.38 11.074-1.55 2.461-4.11 3.692-7.69 3.692-3.6 0-6.21-1.246-7.82-3.737-1.58-2.49-2.37-6.166-2.37-11.029 0-4.893 0.79-8.541 2.37-10.943 1.58-2.432 4.16-3.647 7.74-3.647zm-77.84 25.488c-2.52 0-4.44 0.629-5.76 1.889s-1.97 3.121-1.97 5.582c0 2.373 0.67 4.219 2.02 5.537 1.34 1.289 3.25 1.934 5.71 1.934 2.4 0 4.28-0.66 5.62-1.979 1.35-1.347 2.03-3.177 2.03-5.492 0-2.402-0.68-4.248-2.03-5.537-1.31-1.289-3.19-1.934-5.62-1.934zm-78.98 14.37h6.94c3.37 0 5.86 0.351 7.48 1.054 1.61 0.703 2.41 1.979 2.41 3.825 0 2.285-1.36 4.085-4.08 5.404-2.73 1.318-6.49 1.978-11.3 1.978-3.19 0-5.68-0.527-7.47-1.582-1.76-1.054-2.64-2.506-2.64-4.351 0-1.905 0.82-3.442 2.46-4.614 1.67-1.142 3.74-1.714 6.2-1.714z" transform="translate(16.705 926.79)" fill="#fff"/>
 </g>
</svg>
