<svg xmlns="http://www.w3.org/2000/svg" xmlns:xlink="http://www.w3.org/1999/xlink" xml:space="preserve" version="1.1" style="display:none;">
    <defs>
        <!-- csblogs.com text logo -->
        <path id="icon-textlogo" d="m96.361 4.6055v68.378h10.239l2.24-5.404h0.93c3.28 4.19 7.8 6.283 13.57 6.283 5.83 0 10.43-2.226 13.8-6.679 3.4-4.454 5.1-10.737 5.1-18.852 0-7.881-1.64-14.078-4.92-18.59-3.28-4.541-7.82-6.81-13.62-6.81-6.16 0-10.8 2.431-13.93 7.295h-0.53c0.35-4.454 0.53-7.692 0.53-9.713v-15.908l-13.409-0.0005zm52.449 0v68.378h13.41v-68.378l-13.41-0.0005zm43.89 18.326c-7.59 0-13.48 2.226-17.67 6.679s-6.28 10.694-6.28 18.721c0 5.156 0.96 9.668 2.9 13.535 1.93 3.867 4.7 6.84 8.31 8.92 3.6 2.051 7.76 3.076 12.48 3.076 7.52 0 13.4-2.256 17.62-6.767 4.22-4.512 6.32-10.766 6.32-18.764 0-5.156-0.96-9.654-2.9-13.492-1.93-3.838-4.7-6.781-8.3-8.832s-7.76-3.076-12.48-3.076zm47.35 0c-6.47 0-11.45 1.464-14.94 4.394-3.48 2.93-5.23 7.074-5.23 12.436 0 3.34 0.75 6.24 2.24 8.701 1.53 2.461 3.58 4.248 6.16 5.361-2.05 1.201-3.62 2.432-4.71 3.692-1.08 1.23-1.62 2.783-1.62 4.658 0 1.494 0.51 2.916 1.54 4.264 1.02 1.318 2.22 2.269 3.6 2.855-3.57 0.85-6.28 2.271-8.13 4.264-1.84 1.992-2.77 4.466-2.77 7.425 0 4.307 1.8 7.647 5.41 10.02 3.63 2.402 8.87 3.603 15.73 3.603 8.96 0 15.83-1.582 20.61-4.746 4.8-3.164 7.21-7.617 7.21-13.359 0-4.482-1.42-7.881-4.27-10.195-2.81-2.315-6.91-3.471-12.3-3.471h-8.35c-4.92 0-7.38-0.967-7.38-2.9 0-1.289 0.69-2.461 2.06-3.516l1.98 0.219 2.42 0.133c6.53 0 11.63-1.465 15.29-4.395 3.69-2.959 5.54-7.076 5.54-12.35 0-2.724-0.71-5.185-2.11-7.382l7.69-1.977v-6.812h-17.14c-0.53-0.118-1.74-0.293-3.65-0.528-1.87-0.264-3.5-0.394-4.88-0.394zm45.69 0c-6.21 0-11.02 1.201-14.41 3.603-3.37 2.373-5.06 5.742-5.06 10.108 0 2.548 0.4 4.701 1.19 6.459 0.82 1.728 2.11 3.267 3.87 4.615 1.78 1.347 4.57 2.812 8.35 4.394 2.63 1.114 4.74 2.094 6.32 2.944 1.59 0.82 2.7 1.568 3.34 2.242 0.65 0.644 0.97 1.494 0.97 2.549 0 2.812-2.43 4.218-7.29 4.218-2.38 0-5.13-0.396-8.27-1.187-3.1-0.791-5.9-1.772-8.39-2.943v11.074c2.2 0.937 4.56 1.64 7.08 2.109 2.52 0.498 5.56 0.746 9.14 0.746 6.97 0 12.2-1.318 15.68-3.955 3.52-2.637 5.28-6.474 5.28-11.513 0-2.432-0.43-4.526-1.28-6.284-0.85-1.757-2.16-3.31-3.95-4.658s-4.6-2.799-8.44-4.351c-4.31-1.729-7.1-3.032-8.39-3.911-1.26-0.879-1.89-1.92-1.89-3.121 0-2.138 1.97-3.207 5.93-3.207 2.23 0 4.41 0.336 6.55 1.01s4.44 1.539 6.9 2.594l4.04-9.668c-5.6-2.578-11.35-3.867-17.27-3.867zm66.15 0c-7.77 0-13.73 2.211-17.89 6.634-4.16 4.395-6.24 10.768-6.24 19.118 0 16.787 7.65 25.179 22.94 25.179 3.37 0 6.15-0.263 8.35-0.791 2.23-0.527 4.42-1.478 6.59-2.855v-11.471c-2.2 1.465-4.39 2.549-6.59 3.252-2.2 0.674-4.59 1.012-7.16 1.012-6.98 0-10.46-4.805-10.46-14.414 0-9.903 3.48-14.854 10.46-14.854 1.81 0 3.63 0.278 5.45 0.834 1.81 0.528 3.78 1.217 5.88 2.067l3.96-10.372c-4.51-2.226-9.61-3.339-15.29-3.339zm41.55 0c-7.59 0-13.48 2.226-17.66 6.679-4.19 4.453-6.29 10.694-6.29 18.721 0 5.156 0.97 9.668 2.9 13.535s4.7 6.84 8.31 8.92c3.6 2.051 7.76 3.076 12.48 3.076 7.53 0 13.4-2.256 17.62-6.767 4.22-4.512 6.33-10.766 6.33-18.764 0-5.156-0.97-9.654-2.9-13.492-1.94-3.838-4.7-6.781-8.31-8.832-3.6-2.051-7.76-3.076-12.48-3.076zm57.33 0c-3.22 0-6.08 0.644-8.57 1.933-2.49 1.26-4.39 3.018-5.71 5.274h-0.75l-1.8-6.285h-10.24v49.13h13.41v-23.115c0-5.771 0.77-9.916 2.32-12.435 1.56-2.52 4.05-3.78 7.47-3.78 2.55 0 4.41 0.893 5.59 2.68 1.2 1.758 1.8 4.41 1.8 7.955v28.695h13.4v-24.652c0-5.098 0.81-8.818 2.42-11.162 1.64-2.344 4.1-3.516 7.38-3.516 2.55 0 4.41 0.893 5.58 2.68 1.2 1.758 1.8 4.41 1.8 7.955v28.695h13.45v-32.035c0-6.299-1.44-10.869-4.31-13.711-2.84-2.871-7.04-4.306-12.61-4.306-3.22 0-6.12 0.629-8.7 1.888-2.55 1.26-4.48 3.034-5.8 5.319h-1.19c-2.6-4.805-7.59-7.207-14.94-7.207zm-421.53 0.453c-14.962 0-24.412 9.563-24.412 25.201 0.0001 15.412 9.225 24.975 24.188 24.975 6.637 0 12.15-1.913 16.65-4.725v-5.514c-4.725 2.925-10.35 4.838-16.088 4.838-11.362 0-18.111-7.762-18.111-19.912 0-11.362 5.961-19.463 18.111-19.463 3.825 0 7.762 0.787 10.35 1.574v9.901h5.625v-13.612c-3.938-1.575-10.125-3.263-16.313-3.263zm42.701 0c-11.475 0-17.548 5.175-17.548 13.275 0 17.55 28.687 11.588 28.687 23.963 0 5.513-5.512 7.762-12.375 7.762-3.937 0-8.439-0.788-11.701-1.688v-7.65h-5.512v11.701c4.838 1.575 11.474 2.813 17.324 2.813 11.7 0 18.452-4.838 18.452-13.276 0-17.887-28.688-11.474-28.688-24.074 0-4.613 3.936-7.65 11.361-7.65 3.15 0 6.976 0.561 9.676 1.236v7.764h5.625v-11.702c-4.05-1.237-9.901-2.474-15.301-2.474zm168.11 7.676c4.87 0 7.3 2.959 7.3 8.877 0 2.666-0.59 4.775-1.76 6.328-1.17 1.552-3.02 2.33-5.54 2.33-2.49 0-4.35-0.778-5.58-2.33-1.2-1.553-1.8-3.662-1.8-6.328 0-5.918 2.46-8.877 7.38-8.877zm-120.66 2.593c2.84 0 5.08 1.215 6.72 3.647 1.64 2.402 2.46 6.021 2.46 10.855s-0.82 8.526-2.46 11.074c-1.61 2.52-3.79 3.78-6.55 3.78-3.39 0-5.88-1.143-7.47-3.428-1.55-2.285-2.32-6.064-2.32-11.338v-1.451c0.05-4.688 0.85-8.041 2.37-10.063 1.52-2.05 3.94-3.076 7.25-3.076zm73.13 0.088c3.61 0 6.2 1.215 7.78 3.647 1.58 2.431 2.37 6.08 2.37 10.943 0 4.893-0.79 8.584-2.37 11.074-1.55 2.461-4.11 3.692-7.69 3.692-3.6 0-6.21-1.246-7.82-3.737-1.58-2.49-2.37-6.166-2.37-11.029 0-4.893 0.79-8.541 2.37-10.943 1.58-2.432 4.16-3.647 7.73-3.647zm200.75 0c3.6 0 6.19 1.215 7.77 3.647 1.58 2.431 2.38 6.08 2.38 10.943 0 4.893-0.8 8.584-2.38 11.074-1.55 2.461-4.11 3.692-7.69 3.692-3.6 0-6.21-1.246-7.82-3.737-1.58-2.49-2.37-6.166-2.37-11.029 0-4.893 0.79-8.541 2.37-10.943 1.58-2.432 4.16-3.647 7.74-3.647zm-77.84 25.488c-2.52 0-4.44 0.629-5.76 1.889s-1.97 3.121-1.97 5.582c0 2.373 0.67 4.219 2.02 5.537 1.34 1.289 3.25 1.934 5.71 1.934 2.4 0 4.28-0.66 5.62-1.979 1.35-1.347 2.03-3.177 2.03-5.492 0-2.402-0.68-4.248-2.03-5.537-1.31-1.289-3.19-1.934-5.62-1.934zm-78.98 14.37h6.94c3.37 0 5.86 0.351 7.48 1.054 1.61 0.703 2.41 1.979 2.41 3.825 0 2.285-1.36 4.085-4.08 5.404-2.73 1.318-6.49 1.978-11.3 1.978-3.19 0-5.68-0.527-7.47-1.582-1.76-1.054-2.64-2.506-2.64-4.351 0-1.905 0.82-3.442 2.46-4.614 1.67-1.142 3.74-1.714 6.2-1.714z" fill="#fff"/>
        <!-- csblogs.com logo icon -->
        <g id="icon-logo" transform="translate(-22.41 4.0968)">
            <path d="m270.44 2.3497a241.58 241.58 0 0 0 -241.01 230.14l53.286-44.48 12.042 12.26-60.208 49.49 60.208 50.05-12.042 12.15-52.376-43.73a241.58 241.58 0 0 0 240.1 217.29 241.58 241.58 0 0 0 240.11 -217.36l-52.385 43.732-11.932-12.152 60.209-49.604-60.209-49.934 11.932-12.264 53.281 44.48a241.58 241.58 0 0 0 -241.01 -230.07zm154.6 151.66h18.338l-75.783 179.85h-18.34l75.785-179.85zm-125.21 15.598c15.611 0 32.58 3.6186 43.893 7.4648v33.713h-23.982v-18.553c-4.525-0.67875-11.992-1.8106-19.232-1.8106-13.349 0-26.924 3.8456-26.924 16.516 0 29.412 73.984 13.576 73.984 66.066 0 30.091-24.661 39.818-52.264 39.818-18.1 0-35.749-4.0711-48.871-7.4648v-34.391h23.531v18.1c4.9775 1.1312 13.348 2.9414 23.756 2.9414 14.706 0 28.508-3.6203 28.508-17.195 0-31.449-73.984-14.48-73.984-65.16 0-28.96 24.436-40.045 51.586-40.045zm-120.62 0.13477c22.172 0 42.762 7.0134 51.359 11.086v39.594h-25.115v-25.34c-6.5612-1.81-16.289-3.3945-24.887-3.3945-28.281 0-47.738 17.423-47.738 49.098 0 32.58 20.815 49.549 49.322 49.549 18.779 0 35.974-7.2405 48.191-14.48v25.113c-9.5025 4.9775-27.378 11.992-50.455 11.992-45.25 0-74.209-26.471-74.209-70.816 0-45.702 30.544-72.4 73.531-72.4z" fill-rule="evenodd" fill="#afafaf"/>
        </g>
        <!-- documentation icon -->
        <path id="icon-docs" d="M 21,0.63867194 A 20.360998,20.361 0 0 0 0.63867194,21 20.360998,20.361 0 0 0 21,41.361328 20.360998,20.361 0 0 0 41.361328,21 20.360998,20.361 0 0 0 21,0.63867194 Z M 10.359375,11.195312 c 8.235038,0.107228 9.829611,2.362338 10.041016,2.730469 l 0,14.337891 C 19.056452,27.274827 16.240613,26.127809 10.359375,26.050781 l 0,-14.855469 z m 21.277344,0 0,14.855469 c -5.882289,0.07703 -8.694974,1.224045 -10.039063,2.212891 l 0,-14.332031 c 0.230325,-0.402491 1.865023,-2.6291 10.039063,-2.736329 z m -23.2226564,1.15625 1.0078125,0 0,15.132813 0.3007812,0 c 7.6467657,0 10.0261187,1.563784 10.7246097,2.3125 l 1.125,0 c 0.706041,-0.744564 3.099023,-2.3125 10.703125,-2.3125 l 0.302734,0 0,-15.132813 1.007813,0 0,16.140626 -1.310547,0 c -8.336573,0 -9.907569,1.884771 -10.058594,2.099609 l -0.150391,0.212891 -2.121094,0 -0.152343,-0.220704 c -0.06041,-0.08533 -1.524948,-2.091796 -10.0703127,-2.091796 l -1.3085937,0 0,-16.140626 z"/>
        <!-- github icon -->
        <g id="icon-github" transform="matrix(1.25 0 0 -1.25 -171.28 564.97)"><g transform="translate(153.99 451.26)"><path d="m0 0c-8.995 0-16.288-7.293-16.288-16.29 0-7.197 4.667-13.302 11.14-15.457 0.815-0.149 1.112 0.354 1.112 0.786 0 0.386-0.014 1.411-0.022 2.77-4.531-0.984-5.487 2.184-5.487 2.184-0.741 1.881-1.809 2.382-1.809 2.382-1.479 1.011 0.112 0.991 0.112 0.991 1.635-0.116 2.495-1.679 2.495-1.679 1.453-2.489 3.813-1.77 4.741-1.354 0.148 1.053 0.568 1.771 1.034 2.178-3.617 0.411-7.42 1.809-7.42 8.051 0 1.778 0.635 3.232 1.677 4.371-0.168 0.412-0.727 2.068 0.159 4.311 0 0 1.368 0.438 4.48-1.67 1.299 0.361 2.693 0.542 4.078 0.548 1.383-0.006 2.777-0.187 4.078-0.548 3.11 2.108 4.475 1.67 4.475 1.67 0.889-2.243 0.33-3.899 0.162-4.311 1.044-1.139 1.675-2.593 1.675-4.371 0-6.258-3.809-7.635-7.438-8.038 0.585-0.503 1.106-1.497 1.106-3.017 0-2.177-0.02-3.934-0.02-4.468 0-0.436 0.293-0.943 1.12-0.784 6.468 2.159 11.131 8.26 11.131 15.455 0 8.997-7.294 16.29-16.291 16.29" fill-rule="evenodd"/></g></g>
        <!-- twitter icon -->
        <path id="icon-twitter" d="m21 0.63867a20.362 20.362 0 0 0 -20.361 20.361 20.362 20.362 0 0 0 20.361 20.361 20.362 20.362 0 0 0 20.361 -20.361 20.362 20.362 0 0 0 -20.361 -20.361zm4.637 10.564c1.4226 0 2.709 0.60121 3.6113 1.5625 1.1266-0.22187 2.185-0.63432 3.1406-1.2012-0.36931 1.155-1.1545 2.1261-2.1758 2.7383 1.0005-0.11958 1.9548-0.38591 2.8418-0.7793-0.66314 0.99189-1.5024 1.8632-2.4688 2.5605 0.0095 0.21208 0.01367 0.42421 0.01367 0.63867 0 6.5361-4.9745 14.074-14.072 14.074-2.7932 0-5.3931-0.81933-7.582-2.2227 0.38694 0.04567 0.78045 0.06836 1.1797 0.06836 2.3173 0 4.4498-0.79064 6.1426-2.1172-2.1644-0.03992-3.9897-1.4685-4.6191-3.4336 0.30199 0.05777 0.61095 0.08789 0.92969 0.08789 0.45104 0 0.88769-0.06081 1.3027-0.17383-2.264-0.453-3.9679-2.452-3.9679-4.849 0-0.0209-0.0003439-0.04186 0-0.0625 0.66692 0.37046 1.4295 0.59348 2.2402 0.61914-1.3272-0.88696-2.1992-2.4012-2.1992-4.1172 0-0.90653 0.24221-1.7558 0.66797-2.4863 2.4396 2.9924 6.0846 4.9617 10.195 5.168-0.0843-0.362-0.12695-0.7393-0.12695-1.127 0-2.7315 2.2136-4.9473 4.9453-4.9473z"/>
        <!-- email icon -->
        <path id="icon-email" d="M 21 0.63867188 A 20.360998 20.361 0 0 0 0.63867188 21 A 20.360998 20.361 0 0 0 21 41.361328 A 20.360998 20.361 0 0 0 41.361328 21 A 20.360998 20.361 0 0 0 21 0.63867188 z M 21.945312 8.9882812 C 24.064453 8.9882812 25.949219 9.4277342 27.599609 10.306641 C 29.259765 11.185547 30.542969 12.439453 31.451172 14.070312 C 32.369141 15.691407 32.828125 17.566406 32.828125 19.695312 C 32.828125 21.091797 32.609375 22.373047 32.169922 23.535156 C 31.730469 24.6875 31.109375 25.583984 30.308594 26.228516 C 29.517578 26.873047 28.599609 27.195312 27.554688 27.195312 C 26.783203 27.195312 26.115234 26.992187 25.548828 26.582031 C 24.982421 26.171875 24.601562 25.615234 24.40625 24.912109 L 24.230469 24.912109 C 23.751953 25.673828 23.160156 26.244141 22.457031 26.625 C 21.753906 27.005859 20.96289 27.195312 20.083984 27.195312 C 18.492187 27.195312 17.238281 26.683594 16.320312 25.658203 C 15.41211 24.632812 14.957031 23.246094 14.957031 21.498047 C 14.957031 19.486328 15.5625 17.855469 16.773438 16.605469 C 17.984375 15.345703 19.611328 14.714844 21.652344 14.714844 C 22.394532 14.714844 23.214844 14.783203 24.113281 14.919922 C 25.021485 15.046875 25.826172 15.228515 26.529297 15.462891 L 26.207031 22.273438 L 26.207031 22.626953 C 26.207031 24.189453 26.714844 24.970703 27.730469 24.970703 C 28.501953 24.970703 29.113281 24.472656 29.5625 23.476562 C 30.021484 22.480469 30.25 21.208984 30.25 19.666016 C 30.25 17.996094 29.908203 16.533203 29.224609 15.273438 C 28.541015 14.003906 27.570312 13.025391 26.310547 12.341797 C 25.050781 11.658204 23.605469 11.318359 21.974609 11.318359 C 19.894531 11.318359 18.082031 11.746094 16.539062 12.605469 C 15.005859 13.464844 13.833984 14.697265 13.023438 16.298828 C 12.21289 17.890625 11.808594 19.740235 11.808594 21.849609 C 11.808594 24.681641 12.564453 26.859375 14.078125 28.382812 C 15.591797 29.90625 17.765625 30.667969 20.597656 30.667969 C 22.75586 30.667969 25.005859 30.228516 27.349609 29.349609 L 27.349609 31.751953 C 25.298828 32.591797 23.068359 33.011719 20.65625 33.011719 C 17.042969 33.011719 14.22461 32.041016 12.203125 30.097656 C 10.181641 28.144531 9.171875 25.423828 9.171875 21.9375 C 9.171875 19.388672 9.7187498 17.123047 10.8125 15.140625 C 11.90625 13.148438 13.419922 11.625 15.353516 10.570312 C 17.296875 9.5156247 19.49414 8.9882812 21.945312 8.9882812 z M 21.740234 16.927734 C 20.490234 16.927734 19.513672 17.343749 18.810547 18.173828 C 18.117188 19.003906 17.769531 20.130859 17.769531 21.556641 C 17.769531 23.832031 18.664063 24.970703 20.451172 24.970703 C 22.335937 24.970703 23.365234 23.539063 23.541016 20.677734 L 23.716797 17.177734 C 23.101563 17.011718 22.44336 16.927734 21.740234 16.927734 z "/>
        <!-- CV icon -->
        <path id="icon-cv" d="M 21 0.63867188 A 20.360998 20.361 0 0 0 0.63867188 21 A 20.360998 20.361 0 0 0 21 41.361328 A 20.360998 20.361 0 0 0 41.361328 21 A 20.360998 20.361 0 0 0 21 0.63867188 z M 12.052734 10.318359 L 27.238281 10.318359 C 27.542923 10.318359 27.791016 10.566822 27.791016 10.871094 L 27.791016 14.619141 L 27.457031 14.285156 C 27.374031 14.202486 27.263629 14.15625 27.146484 14.15625 C 27.029339 14.15625 26.920887 14.202862 26.837891 14.285156 L 26.355469 14.767578 L 26.355469 12.191406 C 26.355469 11.950076 26.159636 11.753906 25.917969 11.753906 L 13.373047 11.753906 C 13.131727 11.753906 12.935547 11.950076 12.935547 12.191406 L 12.935547 28.037109 C 12.935547 28.278776 13.131727 28.474609 13.373047 28.474609 L 20.806641 28.474609 L 20.208984 29.910156 L 12.052734 29.910156 C 11.748465 29.910156 11.5 29.662038 11.5 29.357422 L 11.5 10.871094 C 11.5 10.566822 11.748465 10.318359 12.052734 10.318359 z M 14.949219 14.197266 L 19.306641 14.197266 C 19.48922 14.197266 19.636719 14.344752 19.636719 14.527344 L 19.636719 14.662109 C 19.636719 14.844701 19.48922 14.992188 19.306641 14.992188 L 14.949219 14.992188 C 14.766639 14.992188 14.619141 14.844701 14.619141 14.662109 L 14.619141 14.527344 C 14.619141 14.344752 14.766639 14.197266 14.949219 14.197266 z M 27.140625 15.208984 C 27.219775 15.208984 27.298857 15.238488 27.359375 15.298828 L 27.96875 15.908203 C 28.03486 15.974693 28.135546 15.993038 28.220703 15.955078 L 29.009766 15.605469 C 29.166301 15.535469 29.348644 15.607783 29.417969 15.763672 L 29.830078 16.691406 C 29.868008 16.776506 29.95291 16.832031 30.046875 16.832031 L 31.060547 16.832031 C 31.231212 16.832031 31.369141 16.969311 31.369141 17.140625 L 31.369141 18.003906 C 31.369141 18.097466 31.427143 18.181424 31.513672 18.214844 L 32.320312 18.525391 C 32.480005 18.586661 32.559593 18.766786 32.498047 18.925781 L 32.132812 19.871094 C 32.098712 19.959004 32.119067 20.058539 32.185547 20.125 L 32.902344 20.841797 C 33.023352 20.962833 33.023352 21.158289 32.902344 21.279297 L 32.292969 21.890625 C 32.227509 21.956055 32.208104 22.055495 32.246094 22.140625 L 32.595703 22.929688 C 32.665003 23.086952 32.594015 23.268593 32.4375 23.337891 L 31.511719 23.75 C 31.425889 23.78801 31.369141 23.872914 31.369141 23.966797 L 31.369141 24.980469 C 31.369141 25.152107 31.231212 25.291016 31.060547 25.291016 L 31.025391 25.291016 L 33.017578 30.078125 C 33.060478 30.181518 32.955883 30.284075 32.853516 30.238281 L 30.527344 29.210938 C 30.448884 29.176468 30.359736 29.214499 30.328125 29.292969 L 29.376953 31.601562 C 29.333703 31.707818 29.184987 31.708672 29.140625 31.603516 L 27.207031 26.966797 C 27.198931 26.946077 27.198279 26.924687 27.193359 26.904297 C 27.151479 26.910297 27.109914 26.908637 27.068359 26.898438 L 25.134766 31.542969 C 25.090786 31.647848 24.939386 31.648523 24.896484 31.542969 L 23.947266 29.232422 C 23.914896 29.154312 23.824497 29.117192 23.746094 29.152344 L 21.421875 30.177734 C 21.31913 30.223094 21.213308 30.120269 21.255859 30.017578 L 23.224609 25.291016 L 23.220703 25.291016 C 23.050094 25.291016 22.912109 25.152107 22.912109 24.980469 L 22.912109 24.117188 C 22.912109 24.023947 22.854494 23.93894 22.767578 23.90625 L 21.962891 23.595703 C 21.802844 23.534453 21.72391 23.354306 21.785156 23.195312 L 22.148438 22.25 C 22.181828 22.16244 22.161843 22.062581 22.095703 21.996094 L 21.378906 21.279297 C 21.258601 21.158289 21.258601 20.962833 21.378906 20.841797 L 21.990234 20.230469 C 22.055294 20.164679 22.072446 20.064896 22.035156 19.980469 L 21.685547 19.191406 C 21.616577 19.035545 21.68754 18.852825 21.84375 18.783203 L 22.771484 18.373047 C 22.857344 18.335037 22.912109 18.250215 22.912109 18.15625 L 22.912109 17.140625 C 22.912109 16.969311 23.050094 16.832031 23.220703 16.832031 L 24.083984 16.832031 C 24.176544 16.832031 24.261854 16.774716 24.294922 16.6875 L 24.605469 15.880859 C 24.667039 15.721865 24.846191 15.643858 25.005859 15.705078 L 25.951172 16.068359 C 26.039142 16.103179 26.13859 16.081765 26.205078 16.015625 L 26.921875 15.298828 C 26.982375 15.238488 27.061476 15.208984 27.140625 15.208984 z M 14.953125 16.984375 L 21.833984 16.984375 L 21.833984 17.699219 C 21.833984 17.727719 21.827509 17.7552 21.818359 17.78125 L 14.953125 17.78125 C 14.770539 17.78125 14.623047 17.633413 14.623047 17.451172 L 14.623047 17.314453 C 14.623047 17.131862 14.770539 16.984375 14.953125 16.984375 z M 27.140625 17.263672 C 25.043308 17.263672 23.34375 18.963332 23.34375 21.060547 C 23.34375 23.157599 25.043308 24.859375 27.140625 24.859375 C 29.238295 24.859375 30.9375 23.157599 30.9375 21.060547 C 30.9375 18.963332 29.238295 17.263672 27.140625 17.263672 z M 14.962891 19.458984 L 20.814453 19.458984 L 20.898438 19.646484 C 20.938177 19.736904 20.918909 19.843338 20.849609 19.914062 L 20.509766 20.255859 L 14.962891 20.255859 C 14.780695 20.255859 14.632812 20.108347 14.632812 19.925781 L 14.632812 19.789062 C 14.632812 19.606874 14.780695 19.458984 14.962891 19.458984 z M 15.009766 21.958984 L 21.033203 21.958984 C 21.036003 21.996334 21.033252 22.034069 21.019531 22.070312 L 20.755859 22.755859 L 15.009766 22.755859 C 14.827511 22.755859 14.679688 22.608377 14.679688 22.425781 L 14.679688 22.289062 C 14.679688 22.10644 14.827511 21.958984 15.009766 21.958984 z M 15.025391 24.503906 L 21.833984 24.503906 C 21.833984 24.503906 21.958021 25.175869 21.988281 25.300781 L 15.025391 25.300781 C 14.842835 25.300781 14.695312 25.153265 14.695312 24.970703 L 14.695312 24.833984 C 14.695312 24.651827 14.842835 24.503906 15.025391 24.503906 z "/>
        <!-- linkedIn icon -->
        <path id="icon-linkedin" d="M 21 0.63867188 A 20.360998 20.361 0 0 0 0.63867188 21 A 20.360998 20.361 0 0 0 21 41.361328 A 20.360998 20.361 0 0 0 41.361328 21 A 20.360998 20.361 0 0 0 21 0.63867188 z M 12.771484 9.3476562 C 14.180234 9.3476562 15.041563 10.296953 15.070312 11.533203 C 15.070312 12.740703 14.179141 13.71875 12.712891 13.71875 C 11.332891 13.71875 10.441406 12.740703 10.441406 11.533203 C 10.441406 10.296953 11.362734 9.3476562 12.771484 9.3476562 z M 26.527344 15.126953 C 29.402344 15.126953 31.558594 17.053359 31.558594 21.193359 L 31.558594 29.501953 L 27.1875 29.501953 L 27.1875 21.710938 C 27.1875 19.899687 26.555859 18.664062 24.974609 18.664062 C 23.767109 18.664062 23.048672 19.497734 22.732422 20.302734 C 22.617422 20.590234 22.587891 20.992031 22.587891 21.394531 L 22.587891 29.501953 L 18.21875 29.501953 L 18.21875 19.927734 C 18.21875 18.173984 18.161016 16.708359 18.103516 15.443359 L 21.898438 15.443359 L 22.099609 17.398438 L 22.185547 17.398438 C 22.760547 16.478437 24.169844 15.126953 26.527344 15.126953 z M 10.556641 15.443359 L 14.927734 15.443359 L 14.927734 29.501953 L 10.556641 29.501953 L 10.556641 15.443359 z "/>
        <!-- Stack Exchange Icon -->
        <path id="icon-stackex" d="M 21 0.63867188 A 20.360998 20.361 0 0 0 0.63867188 21 A 20.360998 20.361 0 0 0 21 41.361328 A 20.360998 20.361 0 0 0 41.361328 21 A 20.360998 20.361 0 0 0 21 0.63867188 z M 25.042969 8.3515625 L 30.275391 16.060547 L 28.732422 17.105469 L 23.501953 9.3964844 L 25.042969 8.3515625 z M 21.013672 11.546875 L 28.029297 17.675781 L 26.802734 19.078125 L 19.787109 12.949219 L 21.013672 11.546875 z M 18.076172 15.423828 L 26.373047 19.664062 L 25.525391 21.322266 L 17.228516 17.083984 L 18.076172 15.423828 z M 16.302734 19.482422 L 25.357422 21.677734 L 24.917969 23.488281 L 15.865234 21.292969 L 16.302734 19.482422 z M 11.726562 22.408203 L 13.589844 22.408203 L 13.589844 30.136719 L 26.701172 30.136719 L 26.701172 22.417969 L 28.5625 22.417969 L 28.564453 32 L 11.724609 32 L 11.726562 22.408203 z M 15.572266 23.384766 L 24.875 23.892578 L 24.773438 25.753906 L 15.470703 25.246094 L 15.572266 23.384766 z M 15.445312 26.417969 L 24.824219 26.417969 L 24.824219 28.28125 L 15.445312 28.28125 L 15.445312 26.417969 z "/>
        <!-- WordPress Icon -->
        <path id="icon-wordpress" d="M 21 0.63867188 A 20.360998 20.361 0 0 0 0.63867188 21 A 20.360998 20.361 0 0 0 21 41.361328 A 20.360998 20.361 0 0 0 41.361328 21 A 20.360998 20.361 0 0 0 21 0.63867188 z M 21 8.5527344 C 27.863263 8.5527344 33.447266 14.136739 33.447266 21 C 33.447266 27.863523 27.863263 33.447266 21 33.447266 C 14.136608 33.447266 8.5527344 27.863523 8.5527344 21 C 8.5527344 14.136739 14.136608 8.5527344 21 8.5527344 z M 21 9.8085938 C 17.090107 9.8085938 13.651446 11.815592 11.650391 14.853516 C 11.913171 14.862406 12.159182 14.867188 12.369141 14.867188 C 13.539454 14.867188 15.351562 14.724609 15.351562 14.724609 C 15.954605 14.689311 16.026433 15.575084 15.423828 15.646484 C 15.423828 15.646484 14.81684 15.716533 14.142578 15.751953 L 18.21875 27.875 L 20.667969 20.529297 L 18.923828 15.751953 C 18.32082 15.716523 17.75 15.646484 17.75 15.646484 C 17.14672 15.610793 17.218738 14.689299 17.822266 14.724609 C 17.822266 14.724609 19.669953 14.867188 20.769531 14.867188 C 21.939705 14.867188 23.751953 14.724609 23.751953 14.724609 C 24.355227 14.689311 24.425263 15.575084 23.822266 15.646484 C 23.822266 15.646484 23.216696 15.716533 22.542969 15.751953 L 26.585938 27.783203 L 27.703125 24.052734 C 28.186267 22.504263 28.554688 21.393266 28.554688 20.435547 C 28.554688 19.051991 28.058391 18.094999 27.632812 17.349609 C 27.065638 16.427462 26.533203 15.646897 26.533203 14.724609 C 26.533203 13.696035 27.312802 12.738281 28.412109 12.738281 C 28.461769 12.738281 28.508441 12.742994 28.556641 12.746094 C 26.565732 10.921814 23.913325 9.8085938 21 9.8085938 z M 30.820312 15.630859 C 30.868393 15.987281 30.894531 16.369244 30.894531 16.78125 C 30.894531 17.916397 30.683358 19.192525 30.044922 20.789062 L 26.626953 30.671875 C 29.954 28.732075 32.191406 25.128683 32.191406 21 C 32.191406 19.054274 31.693862 17.224766 30.820312 15.630859 z M 10.777344 16.445312 C 10.1563 17.837032 9.8085938 19.377505 9.8085938 21 C 9.8085938 25.429654 12.38366 29.258516 16.117188 31.072266 L 10.777344 16.445312 z M 21.197266 21.978516 L 17.837891 31.736328 C 18.840782 32.031245 19.90148 32.191406 21 32.191406 C 22.303215 32.191406 23.553596 31.966147 24.716797 31.556641 C 24.687207 31.508687 24.659419 31.457664 24.636719 31.402344 L 21.197266 21.978516 z "/>
        <!-- Edit Pencil Icon -->
        <path id="icon-edit" d="M20.71,7.04C21.1,6.65 21.1,6 20.71,5.63L18.37,3.29C18,2.9 17.35,2.9 16.96,3.29L15.12,5.12L18.87,8.87M3,17.25V21H6.75L17.81,9.93L14.06,6.18L3,17.25Z"/>
        <!-- Left Arrow -->
        <path id="left-arrow" d="m37.619995,3.779999l-3.779999,-3.779999l-33.839996,34.020004l33.119995,33.299988l3.779999,-3.779999l-29.699997,-29.519989l30.419998,-30.240005z"/>
        <!-- Right Arrow -->
        <path id="right-arrow" d="m-0.000015,3.779999l3.779999,-3.779999l33.839996,34.020004l-33.119995,33.299988l-3.779999,-3.779999l29.699997,-29.519989l-30.419998,-30.240005z"/>
    </defs>
</svg>