<svg xmlns:rdf="http://www.w3.org/1999/02/22-rdf-syntax-ns#" xmlns="http://www.w3.org/2000/svg" xml:space="preserve" viewBox="0 0 42 42" version="1.1" xmlns:cc="http://creativecommons.org/ns#" xmlns:dc="http://purl.org/dc/elements/1.1/">
    <style>
        svg {
        cursor:pointer;
        fill: #afafaf;
        }
        svg:hover {
        fill: #333;
        }
    </style>
        <g><path d="m21 0.63867a20.362 20.362 0 0 0 -20.361 20.361 20.362 20.362 0 0 0 20.361 20.361 20.362 20.362 0 0 0 20.361 -20.361 20.362 20.362 0 0 0 -20.361 -20.361zm4.637 10.564c1.4226 0 2.709 0.60121 3.6113 1.5625 1.1266-0.22187 2.185-0.63432 3.1406-1.2012-0.36931 1.155-1.1545 2.1261-2.1758 2.7383 1.0005-0.11958 1.9548-0.38591 2.8418-0.7793-0.66314 0.99189-1.5024 1.8632-2.4688 2.5605 0.0095 0.21208 0.01367 0.42421 0.01367 0.63867 0 6.5361-4.9745 14.074-14.072 14.074-2.7932 0-5.3931-0.81933-7.582-2.2227 0.38694 0.04567 0.78045 0.06836 1.1797 0.06836 2.3173 0 4.4498-0.79064 6.1426-2.1172-2.1644-0.03992-3.9897-1.4685-4.6191-3.4336 0.30199 0.05777 0.61095 0.08789 0.92969 0.08789 0.45104 0 0.88769-0.06081 1.3027-0.17383-2.264-0.453-3.9679-2.452-3.9679-4.849 0-0.0209-0.0003439-0.04186 0-0.0625 0.66692 0.37046 1.4295 0.59348 2.2402 0.61914-1.3272-0.88696-2.1992-2.4012-2.1992-4.1172 0-0.90653 0.24221-1.7558 0.66797-2.4863 2.4396 2.9924 6.0846 4.9617 10.195 5.168-0.0843-0.362-0.12695-0.7393-0.12695-1.127 0-2.7315 2.2136-4.9473 4.9453-4.9473z"/></g></svg>
